#define TeXt-Top-4_width 16
#define TeXt-Top-4_height 16
static char TeXt-Top-4_bits[] = {
  0x43, 0xE0, 0x05, 0xE0, 0x00, 0x88, 0x00, 0x80, 0x80, 0x80, 0x00, 0x80, 
  0x81, 0x80, 0x23, 0x84, 0xFF, 0xFF, 0xFF, 0xFF, 0xFF, 0xFF, 0xFF, 0xFF, 
  0xFF, 0xFF, 0xFF, 0xFF, 0xFF, 0xFF, 0xFF, 0xFF, };
